# xmcd CD database file
#
# Track frame offsets:
#	150
#	26534
#	36645
#	46984
#	61006
#	71345
#	86500
#	98484
#	113251
#	126358
#	139733
#	153794
#	166628
#	180070
#	192766
#	206498
#	223026
#	235329
#
# Disc length: 3330 seconds
#
# Revision: 0
# Processed by: cddbd v1.5.1PL2 Copyright (c) Steve Scherf et al.
# Submitted via: CDex 1.50
#
DISCID=de0d0012
DTITLE=Mahalia Jackson - In the upper room
DYEAR=2002
DGENRE=Jazz
TTITLE0=In the upper room
TTITLE1=Do you know him
TTITLE2=Amazing grace
TTITLE3=Go tell it on the mountain
TTITLE4=God answers prayers
TTITLE5=City called heaven
TTITLE6=Get away jordan
TTITLE7=I can put my trust in jesus
TTITLE8=I'm glad salvation is free
TTITLE9=Oh my lord !
TTITLE10=I have a friend
TTITLE11=I want to rest
TTITLE12=It is no secret
TTITLE13=Shall i meet you over wonder
TTITLE14=Holy night, silent night
TTITLE15=There's not a friend like jesus
TTITLE16=Walk with me
TTITLE17=I bown my knees
EXTD=YEAR: 2002
EXTT0=
EXTT1=
EXTT2=
EXTT3=
EXTT4=
EXTT5=
EXTT6=
EXTT7=
EXTT8=
EXTT9=
EXTT10=
EXTT11=
EXTT12=
EXTT13=
EXTT14=
EXTT15=
EXTT16=
EXTT17=
PLAYORDER=
